<?xml version="1.0" encoding="iso-8859-1"?>
<!-- Generator: Adobe Illustrator 19.0.0, SVG Export Plug-In . SVG Version: 6.00 Build 0)  -->
<svg version="1.1" id="Capa_1" xmlns="http://www.w3.org/2000/svg" xmlns:xlink="http://www.w3.org/1999/xlink" x="0px" y="0px"
	 viewBox="0 0 512 512" style="enable-background:new 0 0 512 512;" xml:space="preserve">
<path style="fill:#E21717;" d="M418.733,132.153c-4.576,0-9.085,0.36-13.471,1.07c-1.042,0.171-2.084,0.351-3.117,0.559
	c-39.39,7.721-69.175,42.517-69.175,84.143c0,36.728,23.2,68.133,55.723,80.325c5.296,1.989,10.837,3.467,16.569,4.377
	c4.396,0.701,8.895,1.061,13.471,1.061c47.282,0,85.763-38.472,85.763-85.763C504.495,170.625,466.015,132.153,418.733,132.153z
	 M418.733,262.081c-4.699,0-9.227-0.739-13.471-2.103c-2.113-0.673-4.159-1.516-6.129-2.482
	c-14.551-7.238-24.564-22.262-24.564-39.57c0-18.464,11.387-34.294,27.492-40.887c1.051-0.426,2.113-0.815,3.202-1.165
	c4.254-1.374,8.782-2.103,13.471-2.103c24.356,0,44.156,19.799,44.156,44.156C462.888,242.272,443.089,262.081,418.733,262.081z"/>
<path style="fill:#C4000A;" d="M374.568,217.926c0,17.308,10.013,32.333,24.564,39.57c1.971,0.966,4.017,1.809,6.129,2.482v42.649
	c-5.731-0.909-11.273-2.387-16.569-4.377c-32.522-12.192-55.723-43.596-55.723-80.325c0-41.626,29.785-76.422,69.175-84.143
	c1.033-0.208,2.075-0.388,3.117-0.559v42.649c-1.089,0.351-2.15,0.739-3.202,1.165C385.955,183.632,374.568,199.462,374.568,217.926
	z"/>
<path style="fill:#FB4239;" d="M388.209,100.91v206.851c0,40.764-29.945,74.527-69.042,80.486
	c-4.036,0.616-8.176,0.938-12.382,0.938H194.014c-44.97,0-81.424-36.454-81.424-81.424V100.91c0-8.611,6.972-15.584,15.574-15.584
	h244.47C381.237,85.326,388.209,92.299,388.209,100.91z"/>
<g>
	<path style="fill:#E21717;" d="M319.167,388.248c-4.036,0.616-8.176,0.938-12.382,0.938H194.014
		c-44.97,0-81.424-36.454-81.424-81.424v-51.469c8.659-4.386,18.312-6.736,28.306-6.736h31.727c18.843,0,36.51,8.356,48.456,22.935
		c2.671,3.259,4.955,6.736,6.897,10.383c1.989,0.682,3.988,1.383,5.978,2.122c2.103,0.786,3.856,1.468,5.504,2.122
		c2.274,0.91,4.661,1.904,7.048,2.956c16.74,7.323,32.731,16.569,47.528,27.473c8.431,6.205,13.822,15.754,14.807,26.203
		c0.616,6.546-0.531,13.073-3.211,18.928c0.824,0.843,1.629,1.715,2.406,2.624C313.824,372.086,317.519,380.006,319.167,388.248z"/>
	<path style="fill:#E21717;" d="M362.508,85.326v72.528c0,17.137-13.945,31.082-31.082,31.082
		c-17.147,0-31.092-13.945-31.092-31.082v-29.292c-4.813,10.497-15.423,17.81-27.71,17.81h-1.222
		c-16.806,0-30.476-13.67-30.476-30.476v-30.57H362.508z"/>
	<path style="fill:#E21717;" d="M388.209,100.91v206.851c0,44.97-36.454,81.424-81.424,81.424h-16.256
		c44.97,0,81.424-36.454,81.424-81.424V100.91c0-8.611-6.973-15.584-15.574-15.584h16.256
		C381.237,85.326,388.209,92.299,388.209,100.91z"/>
</g>
<path style="fill:#76C2E0;" d="M434.838,412.267H65.962c-6.987,0-12.651-5.664-12.651-12.651l0,0
	c0-6.987,5.664-12.651,12.651-12.651h368.876c6.987,0,12.651,5.664,12.651,12.651l0,0
	C447.489,406.603,441.825,412.267,434.838,412.267z"/>
<path style="fill:#B96340;" d="M255.137,83.516v32.382c0,8.981,7.281,16.261,16.261,16.261h1.228c8.981,0,16.261-7.28,16.261-16.261
	l0,0c0-7.086,5.745-12.831,12.831-12.831l0,0c7.086,0,12.831,5.744,12.831,12.831v41.955c0,9.32,7.555,16.875,16.875,16.875l0,0
	c9.32,0,16.875-7.555,16.875-16.875V83.516c0-5.269-4.271-9.54-9.54-9.54h-74.082C259.408,73.976,255.137,78.247,255.137,83.516z"/>
<path style="fill:#D8AD8F;" d="M293.322,426.413l-0.076,0.057c-13.092,11.491-32.295,12.259-46.24,2.15
	c-0.616-0.426-1.213-0.9-1.809-1.383c-0.616-0.502-1.222-1.004-1.847-1.487c-23.721-19.013-54.283-34.407-86.028-34.407
	c-36.529,0-64.628,14.257-85.251,31.471c-0.928,0.777-1.838,1.563-2.738,2.349c-0.265,0.237-0.53,0.464-0.805,0.673
	c-13.537,11.207-33.053,11.614-46.884,0.635h-0.019c-16.37-12.979-18.596-36.539-6.044-52.198c0.957-1.194,1.999-2.34,3.126-3.429
	c0.445-0.436,0.9-0.853,1.374-1.269c38.917-34.123,86.416-52.502,137.241-52.502c31.433,0,63.064,8.431,93.995,25.048
	c14.371,7.74,28.278,17.128,41.275,27.842c0.483,0.398,0.947,0.805,1.402,1.232c1.165,1.051,2.236,2.169,3.231,3.335
	C310.08,389.581,308.811,412.829,293.322,426.413z"/>
<path style="fill:#C19476;" d="M297.187,374.528l-50.218,54.093c-0.616-0.426-1.213-0.9-1.809-1.383
	c-0.616-0.502-1.222-1.004-1.847-1.487c-23.721-19.013-54.283-34.407-86.028-34.407c-36.529,0-64.628,14.257-85.251,31.471
	c-0.928,0.777-1.838,1.563-2.738,2.349c-0.265,0.237-0.53,0.464-0.805,0.673l-52.776-51.393c-0.057-0.057-0.114-0.114-0.171-0.17
	c0.957-1.194,1.999-2.34,3.126-3.429c0.445-0.436,0.9-0.853,1.374-1.269c38.917-34.123,86.416-52.502,137.241-52.502
	c31.433,0,63.064,8.431,93.995,25.048c14.371,7.74,28.278,17.128,41.275,27.842c0.483,0.398,0.947,0.805,1.402,1.232
	C295.121,372.245,296.192,373.362,297.187,374.528z"/>
<path style="fill:#EFCDB1;" d="M288.689,362.79l-56.414,60.781c-6.565,7.077-16.739,9.132-25.427,5.551
	c-1.184-0.493-2.34-1.08-3.458-1.781c-0.227-0.142-0.464-0.284-0.692-0.426c-14.324-8.839-30.618-14.106-44.857-14.106
	c-19.108,0-33.697,5.57-44.43,12.448c-0.881,0.568-1.79,1.071-2.719,1.487c-1.497,0.692-3.041,1.213-4.623,1.554
	c-7.313,1.61-15.176-0.483-20.785-5.949L25.63,364.258c-9.824-9.559-9.066-25.578,1.639-34.133
	c15.859-12.675,33.413-22.821,52.179-30.248c1.724-0.692,3.458-1.355,5.201-1.99c22.982-8.384,47.661-12.761,73.191-12.761
	c23.807,0,47.67,4.434,71.145,13.187c1.724,0.644,3.458,1.307,5.182,1.999c2.217,0.881,4.433,1.809,6.641,2.776
	c15.773,6.906,30.949,15.697,44.8,25.9C296.533,337.032,297.916,352.853,288.689,362.79z"/>
<path style="fill:#D8AD8F;" d="M234.065,324.499l-15.858,79.311c-1.885,9.417-5.855,18.009-11.359,25.313
	c-1.184-0.493-2.34-1.08-3.458-1.781c-0.227-0.142-0.464-0.284-0.692-0.426c-14.324-8.839-30.618-14.106-44.857-14.106
	c-19.108,0-33.697,5.57-44.43,12.448c-0.881,0.568-1.79,1.071-2.719,1.487c-1.497,0.692-3.041,1.213-4.623,1.554
	c-5.191-7.124-8.943-15.423-10.752-24.489L79.46,324.499c-1.648-8.251-1.62-16.607-0.009-24.621c1.724-0.692,3.458-1.355,5.201-1.99
	c22.982-8.384,47.661-12.761,73.191-12.761c23.807,0,47.67,4.434,71.145,13.187c1.724,0.644,3.458,1.307,5.182,1.999
	C235.685,308.195,235.685,316.389,234.065,324.499z"/>
<path style="fill:#F9E8D4;" d="M156.762,439.974L156.762,439.974c-23.094,0-42.978-16.301-47.507-38.947l-15.862-79.312
	c-5.996-29.979,16.934-57.949,47.507-57.949h31.725c30.573,0,53.503,27.97,47.507,57.949l-15.862,79.312
	C199.74,423.673,179.856,439.974,156.762,439.974z"/>
<path d="M376.27,363.261c12.427-15.542,19.311-35.048,19.428-54.979c7.492,1.914,15.201,2.902,23.032,2.902
	c51.429,0,93.27-41.836,93.27-93.26c0-51.429-41.841-93.27-93.27-93.27c-6.075,0-12.148,0.597-18.021,1.77
	c-1.67,0.327-3.336,0.721-4.999,1.144v-26.664c0-12.727-10.354-23.08-23.08-23.08h-17.828c-2.35-6.602-8.644-11.349-16.043-11.349
	h-74.082c-7.397,0-13.692,4.748-16.042,11.349H128.17c-12.727,0-23.08,10.354-23.08,23.08v53.24c0,4.142,3.357,7.5,7.5,7.5
	s7.5-3.358,7.5-7.5v-53.24c0-4.456,3.625-8.08,8.08-8.08h119.467v23.074c0,13.102,10.659,23.762,23.762,23.762h1.228
	c13.103,0,23.762-10.66,23.762-23.762c0-2.939,2.391-5.331,5.33-5.331s5.331,2.391,5.331,5.331v41.955
	c0,13.441,10.935,24.375,24.375,24.375c13.441,0,24.376-10.935,24.376-24.375V92.825h16.83c4.455,0,8.08,3.625,8.08,8.08v197.038
	c0,0.015,0,0.031,0,0.046v9.776c0,34.106-22.954,63.466-55.915,71.7h-15.585c-2.755-5.843-6.781-11.078-11.89-15.288
	c-0.043-0.036-0.082-0.067-0.125-0.102c3.836-5.756,5.627-12.708,4.972-19.685c-0.803-8.547-5.215-16.362-12.11-21.446
	c-14.432-10.62-29.989-19.61-46.237-26.719c-6.748-2.956-13.661-5.579-20.593-7.863c-1.943-4.109-4.383-8.018-7.335-11.619
	c-10.669-13.013-26.438-20.477-43.267-20.477h-31.725c-7.241,0-14.283,1.39-20.81,4.001v-77.132c0-4.142-3.357-7.5-7.5-7.5
	s-7.5,3.358-7.5,7.5v86.106c-2.686,2.244-5.192,4.74-7.457,7.503c-2.863,3.492-5.246,7.273-7.16,11.245
	c-24.787,7.899-47.614,20.085-67.883,36.275c-6.771,5.406-10.899,13.475-11.328,22.138c-0.299,6.065,1.236,12.018,4.307,17.129
	c-0.153,0.134-0.311,0.27-0.463,0.404c-9.917,8.69-15.418,21.255-15.093,34.472c0.326,13.252,6.447,25.578,16.797,33.841
	c0.043,0.035,0.086,0.07,0.129,0.104c8.102,6.425,17.866,9.615,27.636,9.615c10.583,0,21.172-3.743,29.66-11.173
	c1.582-1.388,3.193-2.738,4.821-4.041l0.989,0.962c5.86,5.714,13.468,8.657,21.139,8.657c5.61,0,11.254-1.575,16.271-4.792
	c0.046-0.03,0.09-0.054,0.136-0.083c6.447,6.312,14.446,11.085,23.473,13.724c0.703,0.206,1.411,0.303,2.107,0.303
	c3.246,0,6.239-2.125,7.196-5.397c1.162-3.976-1.119-8.141-5.095-9.303c-8.147-2.382-15.147-7.137-20.284-13.455
	c-0.092-0.118-0.187-0.232-0.285-0.344c-3.973-4.997-6.791-10.947-8.095-17.468l-15.862-79.313
	c-2.416-12.077,0.677-24.466,8.485-33.991c7.809-9.524,19.351-14.987,31.667-14.987h31.725c12.316,0,23.858,5.462,31.667,14.987
	c7.809,9.524,10.901,21.914,8.486,33.991l-15.862,79.312c-2.867,14.337-13.266,26.135-27.137,30.789
	c-3.927,1.317-6.042,5.569-4.725,9.496c1.317,3.927,5.57,6.044,9.496,4.725c8.097-2.717,15.323-7.22,21.255-13.01
	c1.216,0.691,2.422,1.405,3.606,2.148c4.984,3.119,10.581,4.634,16.136,4.634c7.648,0,15.213-2.88,20.971-8.405
	c1.321,1.026,2.62,2.059,3.882,3.097c8.301,6.818,18.349,10.208,28.375,10.208c10.471,0,20.917-3.701,29.307-11.06
	c0.024-0.021,0.12-0.103,0.145-0.124c4.024-3.529,7.315-7.702,9.806-12.289H434.84c11.111,0,20.15-9.039,20.15-20.15
	c0-5.389-2.094-10.451-5.896-14.253c-3.803-3.802-8.865-5.896-14.254-5.896h-10.68c-4.143,0-7.5,3.358-7.5,7.5s3.357,7.5,7.5,7.5
	h10.68c1.383,0,2.678,0.534,3.646,1.503c0.97,0.97,1.504,2.265,1.504,3.647c0,2.84-2.311,5.15-5.15,5.15H313.002
	c0.328-2.306,0.485-4.65,0.449-7.016c-0.017-1.102-0.089-2.196-0.186-3.284h12.462c0.006,0,0.011,0.001,0.017,0.001
	c0.008,0,0.017-0.001,0.025-0.001h69.401c4.143,0,7.5-3.358,7.5-7.5s-3.357-7.5-7.5-7.5h-35.841
	C365.629,374.848,371.351,369.413,376.27,363.261z M340.8,157.853c0,5.169-4.206,9.375-9.376,9.375
	c-5.169,0-9.375-4.206-9.375-9.375v-41.955c0-11.21-9.12-20.331-20.331-20.331c-11.21,0-20.33,9.12-20.33,20.331
	c0,4.831-3.931,8.762-8.762,8.762h-1.228c-4.831,0-8.762-3.931-8.762-8.762V85.383c0-0.02,0.003-0.039,0.003-0.058
	s-0.003-0.038-0.003-0.058v-1.75c0-1.125,0.915-2.041,2.04-2.041h74.082c1.125,0,2.041,0.916,2.041,2.041L340.8,157.853
	L340.8,157.853z M395.71,189.428c2.778-2.255,5.854-4.086,9.177-5.446c4.413-1.796,9.071-2.707,13.844-2.707
	c20.214,0,36.659,16.441,36.659,36.65c0,20.214-16.445,36.66-36.659,36.66c-5.697,0-11.171-1.282-16.26-3.805
	c-2.41-1.199-4.671-2.666-6.761-4.362V189.428z M403.618,141.14c4.936-0.985,10.021-1.485,15.112-1.485
	c43.158,0,78.27,35.112,78.27,78.27c0,43.152-35.111,78.26-78.27,78.26c-7.866,0-15.582-1.177-23.021-3.475v-28.542
	c0.03,0.015,0.059,0.031,0.089,0.046c7.188,3.563,14.902,5.37,22.932,5.37c28.485,0,51.659-23.174,51.659-51.66
	c0-28.48-23.174-51.65-51.659-51.65c-6.721,0-13.28,1.283-19.512,3.819c-1.195,0.489-2.361,1.033-3.509,1.605v-28.554
	C398.323,142.342,400.963,141.66,403.618,141.14z M64.351,419.511c-10.838,9.486-26.796,9.968-37.991,1.166
	c-0.036-0.03-0.073-0.06-0.11-0.089c-6.925-5.491-11.022-13.71-11.239-22.551c-0.216-8.755,3.423-17.073,9.999-22.835
	c0.19-0.168,0.388-0.339,0.582-0.507l42.651,41.528C66.931,417.298,65.63,418.39,64.351,419.511z M101.9,402.498
	c1.222,6.109,3.42,11.848,6.427,17.056c-5.812,3.119-12.981,2.131-17.815-2.583L31.25,359.269c-0.012-0.012-0.025-0.024-0.037-0.036
	l-0.349-0.34c-3.153-3.073-4.838-7.356-4.62-11.751c0.219-4.432,2.245-8.394,5.706-11.157c16.162-12.909,34.075-23.082,53.39-30.348
	c-0.679,5.775-0.474,11.688,0.698,17.55L101.9,402.498z M207.377,420.992c-0.743-0.467-1.495-0.923-2.251-1.373
	c3.054-5.243,5.277-11.013,6.499-17.121l15.862-79.312c1.144-5.72,1.363-11.488,0.743-17.13c3.216,1.232,6.416,2.527,9.574,3.91
	c15.234,6.666,29.823,15.097,43.356,25.055c3.506,2.585,5.662,6.41,6.071,10.771c0.408,4.353-1.063,8.687-4.038,11.891
	l-56.425,60.785C221.787,423.843,213.627,424.905,207.377,420.992z M288.409,420.712c-0.025,0.021-0.12,0.103-0.145,0.125
	c-10.95,9.604-27.075,9.858-38.339,0.607c-1.02-0.84-2.067-1.676-3.124-2.509l40.47-43.597c0.172,0.141,0.333,0.271,0.509,0.416
	c6.649,5.479,10.54,13.58,10.673,22.227C298.588,406.71,294.899,415.019,288.409,420.712z"/>
<path d="M291.886,252.392c0-4.142-3.357-7.5-7.5-7.5h-66.495c-4.143,0-7.5,3.358-7.5,7.5s3.357,7.5,7.5,7.5h66.495
	C288.528,259.892,291.886,256.534,291.886,252.392z"/>
<path d="M241.863,272.407c-4.143,0-7.5,3.358-7.5,7.5s3.357,7.5,7.5,7.5h18.549c4.143,0,7.5-3.358,7.5-7.5s-3.357-7.5-7.5-7.5
	H241.863z"/>
<path d="M259.094,339.17c-4.143,0-7.5,3.358-7.5,7.5v1.053c0,4.142,3.357,7.5,7.5,7.5s7.5-3.358,7.5-7.5v-1.053
	C266.594,342.528,263.236,339.17,259.094,339.17z"/>
<path d="M57.097,338.117c-4.143,0-7.5,3.358-7.5,7.5v1.053c0,4.142,3.357,7.5,7.5,7.5s7.5-3.358,7.5-7.5v-1.053
	C64.597,341.475,61.239,338.117,57.097,338.117z"/>
<path d="M43.053,424.219c4.143,0,7.5-3.358,7.5-7.5v-1.053c0-4.142-3.357-7.5-7.5-7.5s-7.5,3.358-7.5,7.5v1.053
	C35.553,420.862,38.91,424.219,43.053,424.219z"/>
<path d="M282.482,387.87c-4.143,0-7.5,3.358-7.5,7.5v1.053c0,4.142,3.357,7.5,7.5,7.5s7.5-3.358,7.5-7.5v-1.053
	C289.982,391.228,286.625,387.87,282.482,387.87z"/>
<path d="M246.117,347.995c-4.143,0-7.5,3.358-7.5,7.5v1.053c0,4.142,3.357,7.5,7.5,7.5s7.5-3.358,7.5-7.5v-1.053
	C253.617,351.353,250.26,347.995,246.117,347.995z"/>
<path d="M143.279,380.077c-4.143,0-7.5,3.358-7.5,7.5v1.053c0,4.142,3.357,7.5,7.5,7.5s7.5-3.358,7.5-7.5v-1.053
	C150.779,383.435,147.422,380.077,143.279,380.077z"/>
<path d="M138.359,363.095v-1.053c0-4.142-3.357-7.5-7.5-7.5s-7.5,3.358-7.5,7.5v1.053c0,4.142,3.357,7.5,7.5,7.5
	C135.002,370.595,138.359,367.237,138.359,363.095z"/>
<g>
</g>
<g>
</g>
<g>
</g>
<g>
</g>
<g>
</g>
<g>
</g>
<g>
</g>
<g>
</g>
<g>
</g>
<g>
</g>
<g>
</g>
<g>
</g>
<g>
</g>
<g>
</g>
<g>
</g>
</svg>
